<svg xmlns="http://www.w3.org/2000/svg" width="1252.996" height="791.703" viewBox="0 0 1252.996 791.703">
  <g id="Group_17373" data-name="Group 17373" transform="translate(-334.238 -8909.026)">
    <g id="Group_17289" data-name="Group 17289" transform="translate(334.238 8909.027)" opacity="0.7">
      <path id="Path_77377" data-name="Path 77377" d="M1013.142,623.981l-6.08-6.9-7.133-1.745v6.046c-3.2-.377-3.582-3.031-3.662-5.412-.141-4.205-2.144-6.857-5.639-8.948-2.339-1.4-4.3-3.425-6.448-5.148a121.215,121.215,0,0,0-9.86-7.732c-2.91-1.874-6.291-3.018-9.731-4.609-5.563,2.446-11.292-1.581-17.876-1.281l2.314,9.383-4,2.528-6.93-6.225c1.1-.8,1.957-1.351,2.734-2s1.459-1.389,2.315-2.216l-3.039-1.477-5.7,5.9a64.617,64.617,0,0,0-17.521-1.836c-3.015.12-5.209-.275-6.026-2.85l-1.231-8.641c-8.729-4.267-9.877-4.285-17.233-2.153a44.443,44.443,0,0,1-6.75,1.078l-11.2-10.663,2.8-.794c-2.867-3.506-5.883-4.887-9.828-3.927l-1.407,3.329-4.283-.59c.4-1.833.714-3.307,1.024-4.74-7.065-3.168-14.066-4.634-20.919.385.264,3.408.539,6.952.854,11.015l-4.144-1.193-3.422,4.04c-.223-1.628-.334-2.447-.471-3.445l-5.46-1.792-6.14,3.6-5.074-5.355c-2.621,3.147-1.011,8.4-5.382,11.6-2.268-2.751-4.883-4.589-6.427-8.208-1.767-4.141-3.367-9.134-8.515-10.948l7.389-7.672-3.539-3.821-4.5,1.243-7.06-4.472-3.589,1.945c.376,1.93.738,3.794,1.178,6.055l-4.54,2.685L770.068,554.5c-.442-2.034-.725-3.335-.968-4.453l-9.476-2.157.13.541-7.77.944c-.4-1.273-.618-1.985-.857-2.753-5.009,2.312-7.495-2.406-11.334-3.331v-3.81c2.551-1.851,5.187-3.548,7.572-5.544a18.053,18.053,0,0,0,6.418-13.067c.117-1.717-.61-4.937-1.29-5.031-4.777-.664-4.211-6.051-7.8-7.969h-9.972l-1.806,2.088-4.168-.7L731.4,504.2l-7.223-3.623,2.518-4.869-6.471-3.446c-2.46,2.409-5.141,4.993-7.776,7.624-3.051,3.047-.282,7.585-2.5,11l-5.933.843.557.8-6.952,6.6c-4.888-1.728-9.865-5.235-15.2-.874l.477,1.925c-5.8,3.622-14.441,2.881-17.137,10.615l-6.323,2.7c.235,2.252.429,4.124.6,5.751l3.7,6.3c-5.845,1.094-10.7,2.346-15.626,2.811-3.591.339-6.563,1.118-7.995,3.276l1.775,9.542,7.013,6.869-3.84,3.452-9.649-8.569-9.091,4.787c-.111,1.14-.241,2.466-.355,3.633l3.393,2.734c-2.239,2.726-4.425,2.494-7.308.079l1.026-11.087c-.708,3.381-3.681,4.845-6.312,6.339l-1.344,3.881,4.179,9.329c-2.591,4.487-3.22,8.851-1.268,13.82l6.6-1.449,3.981,2.82-9.212,2.615,1.541,9.345-9.7,13.561c-2.889-2.824-7.843.149-9.823-4.683l9.278-2.613,5.325-13.783-3.684-4.48c0-4.146-.869-8.21.207-11.669,1.552-4.989.654-8.825-2.311-11.911.393-5.639,5.162-10.037,2.184-15.917l-10.65-.476c-1,4.461-1.989,8.833-3.121,13.864l-4.535,3.913,1.459,12.836-2.6,2.076L597.2,592.3l4.284,8.531-1.068,2.131h-2.714c-3.972-2.889-7.512-5.717-11.315-8.133a28.861,28.861,0,0,0-7.352-3.172c-4.443-1.3-9.052-2.133-11.521-7.039-.646.857-1.1,1.459-1.6,2.122l4.574,4.9.865-.753c.847,2.472,1.691,4.946,2.606,7.626l-2.914,2.746-5.467-2.478-3.995,3.589h-6.2q.09.323.179.646l-6.1,2.021-.87-7.057-3.957,5.4c-6.041,1.1-10.5,5.277-15.562,8.307-.179,1.551-.354,3.107-.571,5.024l-6.176,1.484-3.7-6.422,5.476-4.431-2.9-4.925-4.169.243c-.343,3.842-.633,7.091-.984,11.023l1.888,4c-.582,2.128-1.129,4.128-1.758,6.428l-5.911-3.361-8.958,8.56c1.182,3.761,1.182,3.761-.714,6.36l-4.859-.622-3.025-2.875L490.48,634.2l4.84,4.709-.432,2.674c-5.125,1.532-6.5-3.711-10.533-4.424-.233-3.758-.455-7.338-.754-12.158l-3.918-3.9,1.592-2.548c4.406,1.549,8.4,2.862,12.322,4.356,4.6,1.75,8.764.409,11.113-3.753,2.321-4.112,1.286-8.544-2.617-11.539-4.609-3.536-9.178-7.123-13.325-10.347l-14.632-4.891,3.6-1.328q.026-.339.052-.679H466.027l2.6-2.121-2.5-.675,5.107-2.964-10.879-8.287L458.8,580.29l-3.457-2.127-5.435,1.309-3.959,7.478-6.521-.984,2.017,3.327-.479.893-5.622-2.125,1.288,4.6c-1.772,4.114-5.56,1.64-8.013,2.979l-7.536,8.164c.087,1.033.225,2.675.363,4.327l-3.1.459-7.058,11.63,2.911,2.737c-7.92.748-4.839,7.945-7.443,12.6l-1.936-2.685-1.432,2.419.953.694-6.546,9.574-8.527,5.1-2.229,4.1,2.026,3.976-5.117-1.055c.071,1.318.111,2.054.15,2.766l6.889,1.546q-.049.553-.1,1.105l-6.846.746.659,3.964,4.814-.611-3.963,5.037c.164,2.4.3,4.416.467,6.822,2.966,3.222,2.966,3.222,6.909,3.076l7.3-6.651.937-4.885c1.79,7.853,6.022,14.364,8.6,21.461V698.9l3.589.494c-.455-4.622,3.523-4.211,5.478-5.185l4.193-5.977c-1.6-3.468-1.1-6.417,1.377-9.311,2.262-2.646,4.163-5.6,6.3-8.524l-6.083-6.33c-1.077-8.1.721-14.011,7.457-19.708,2.474-2.093,4.714-4.463,6.916-6.568-2.5-5.028.933-7.823,2.447-10.586,3.908-1.118,7.574-1.945,10.732,1.314-.183,1.387-.379,2.87-.61,4.623l-13.575,17.6c.707,4.292,1.973,7.071,1.362,10.652-.463,2.721,1.669,5.886,2.673,8.844.031.093.372.08,1.049.205.1-1.192.189-2.238.321-3.786,2.195,2.609,4.14,3.076,7.186,1.752,3.858-1.677,8.213-2.211,11.654-3.065l4.8,3.614-7.193,5.548c-5.147-2.441-10.307-1.66-14.514,2.885l-1.39-1.724-1.494,2.879,3.9.578,2.958,3.752c-.741,1.874,2.211,6.449-3.4,6.969l-3.733-4.609c-6.519,4.375-4,10.536-3.236,15.149l-7.96,5.232-4.69-2.919-11.08,6.479-6.292-3.631-4.638,2.225-4.778-3.3c-.171-7.692-.152-7.772,2.893-11.658-4.216-3.8-4.216-3.8-8.452.026.476,2.656.947,5.311,1.512,8.5l-1.125,1.663,3.049,5.348a112.721,112.721,0,0,0-11.106,3.281c-1.71.691-3.805,2.268-4.271,3.867-1.5,5.163-5.537,7.378-9.9,9.77.269,4.448-3.942,5.337-6.379,7.838l-5.534-.423.912,3.32-2.382,1.758-7.457-1.393c-.115,1.313-.2,2.22-.278,3.166,12.866,6.346,13.713,13.218,9.224,23.755-4.185-.414-8.654-.915-13.133-1.283-4.112-.338-8.342-1.069-12.136,2.607.575,2.78,1.771,5.8,1.657,8.763-.122,3.188-1.472,6.328-2.149,8.956l2.363,8.05h5.521l3.476,3.083,13.114-2.75,6.107-6.107c-1.407-10.1,6.65-11.7,11.6-15.532-.94-3.293-.874-5.995,2.654-7.583l7.055,2.352,9.769-5.957,3.778,1.525c3.586,5.794,7.239,10.557,13.356,13.415,7,3.268,8.538,7.216,7.286,13.7L423.359,782l-1.19-4.108,4.213-2.537-12.207-7.764-1.988-4.706-4.58-4.318c.117-2.321.216-4.276.309-6.13l4.319-1.089c.26,1.155.517,2.3.736,3.269l2.865-1.66,3.8,8.245.781-.765,12.824,9.862-1.195,4.841c3.117,4.74,4.9,10.9,11.827,9.921-.368-2.823-.757-5.808-1.2-9.218l3.977,1.277,3.154-3.915,8.756,2.114-1.929,3.161c.624,2.44,1.058,4.267,1.561,6.075.521,1.873,1.108,3.727,1.62,5.438,4.1,2.02,8.026,3.963,12.342,1.386l6.088,3.251,6.682-2.941,2.93,1.777c.283,2.669.547,5.17.893,8.435-3.872,3.342-2.363,10.174-7.183,13.579L470.784,814l-6.058,2.933-25.949-8.262-4.677,2.344c.949,3.948,1.1,7.373-2.656,7.93-3.6-1.322-6.39-2.14-8.979-3.369a15.466,15.466,0,0,1-4.425-3.33c-2.145-2.261-4.473-3.783-7.72-3.769-4.435.019-7.837-2.175-10.907-5.343l3.322-3.847-.991-7.45-2.008-.976c-3.433.367-5.739.8-8.049.823-4.628.049-9.44-.287-13.84.413-6.372,1.015-12.437,3.95-18.634,6.066l.227.658h-9.572l-4.182-3.3c-.555,7.123-4.77,10.636-10.262,12.565-.941,4.191-5.229,7.318-1.714,11.728-4.12,3.2-6.21,8.406-11.252,8.289l-6.41,8.563.334.138-9.969,18.166c3.869-1.129,4.212.466,4.316,2.495.133,2.58.4,5.154.673,8.619l-3.593,10.536c.491,1.056,1.74,2.438,1.517,3.516-.66,3.193.724,4.642,3.125,6.52a31.5,31.5,0,0,1,7.773,8.84c1.81,3.142,3.371,6.01,6.724,7.855a39.367,39.367,0,0,1,6.944,5.478c2.4,2.153,5.508,3.668,8.134,2.27,5.777-3.077,11.4-2.372,17.3-.753.718-.37,1.424-.7,2.095-1.085,5.051-2.922,10.6-3.943,16.324-4.38,5.107-.39,7.128,2.978,8.271,7.054,5.192-.809,9.887-1.085,13.967,3.622-.622,2.443-2.2,5.225-1.716,7.579.639,3.086-.411,5.025-2.615,7.482l12.1,14.23c1.779,6.365,3.708,13.26,5.852,20.93-1.137,1.968-2.437,4.521-4.017,6.889-3.811,5.713-3.513,15.151-.321,21.31,2.538,4.9,5.864,9.455,6.024,15.657a41.981,41.981,0,0,0,3.872,15.221c2.472,5.66,6.115,10.808,9.032,15.805-.645,10.06.358,8.588,4.5,11.625,5.769-.675,10.991-1.488,16.244-1.834,4.061-.267,7.775-1.242,10.944-3.748,6.609-5.226,10.933-12.432,16.018-18.966a8.415,8.415,0,0,0,1.229-3.853c.355-2.431.484-4.895.688-7.134l9.366-4.865c-.959-5.614-1.823-10.667-2.733-15.991,5.365-4.566,10.218-9.949,17.011-12.038l2.6-5.189-.768-16.167c-6.894-3.06-.173-11.425-5.684-14.946A48.883,48.883,0,0,1,515.976,922.9c7.878-5.727,14.5-12.015,18.539-20.732,2.23-4.809,6.494-9.2,4.675-14.974l-22.256,4.262c-3.966-2.541-3.682-5.648-3.661-8.653,2.821.3,5.6.618,8.013-1.563.655-.593,1.774-.667,2.674-.994q9.008-3.264,18.024-6.538l2.324-3.856,8.2-1.939,9.392-7.667a19.875,19.875,0,0,1,3.4-5.549c1.41-1.847,2.778-3.725,4.653-6.248l-12.355-7.83c-.116-2.17-.191-3.556-.25-4.661-2.472,2.06-4.785,5.41-7.615,5.924-2.547.463-6.143,3.639-8.394.165-.322-2.546-.572-4.524-.988-7.815-.6,2.563-.89,3.778-1.177,4.992l-.96.189-2.557-6.543c-3.381-3.242-5.825-7.757-7.206-13.433h8.778l3.842,7.18,8.667,6.021,8.209-2.869,4.572,5.8c9.457,3.523,19.926,2.568,29.92,1.4l10.478,11.461-.517,1.595,4.779,5.1,6.13-4.809c1,8.831,1.724,17.339,5.332,25.281,3.6,7.921,6.459,16.174,10.967,24.191l8.135-9.6c.553-5.856,1.126-11.924,1.666-17.638,9.122-3.253,13.261-12.77,21.847-16.151.327-1.707.617-3.22.879-4.591,11.13-3.4,14.27-3.845,17.42-2.406.171,1.636.354,3.393.48,4.593,1.835,3.321,6.839,2.415,7.042,6.958.151,3.371.706,6.724,1.157,10.767,3.21,1.134,5.7-1.511,8.475-4.6,1.949,5.195,4.535,9.779,5.257,14.639.762,5.13-.254,10.524-.51,16.192,7.6,4.281,6.027,13.509,10.394,19.833l8.241,4.849L717.1,908.5c-1.788-1.164-5.128-2.65-7.5-5.081-2.319-2.377-3.649-5.718-5.956-9.536a33.966,33.966,0,0,1,4.969-14.742l1.844,4.588c6.61-1.169,6.647,7.615,12.278,7.732.2,1.953.361,3.479.6,5.738l15.424-11.429c-.654-4.024-1.247-7.671-1.688-10.379l-12.5-14.539,8.1-8.959h6.57l1.347,3.533,2.351-2.895,20.074-7c8.529-2.61,10.2-13.4,17.194-20.827.1-.6.4-2.282.718-4.074a11.9,11.9,0,0,0-1.252-1.167c-.567-.4-1.207-.7-2.79-1.592l3.558-.846c-2.11-5.931-2.366-12.675-8.585-16.851,1.508-2.649,2.276-5.633,6.159-6.446,2.043-.427,3.776-2.341,5.995-3.814l-6.455-1.6-6.942,2.123c.365-1.462.545-2.187.73-2.929l-4.789-2.324L779.142,773.3l3.831,1.916-2.911,6.441,10.466-3.867c.212,1.58.3,2.229.39,2.9l2.5-.594-1.1,5.747,4.589,2.729v12.062c4.278,1.022,6.731-1.757,9.651-3.384v-7.262l-6.88-9.788c2.542-3.735,9.463-4.643,8.563-10.54l7.088-6.487c5.183,3.087,7.859,2.339,11.826-2.948A219.527,219.527,0,0,0,841.2,739.931a17.192,17.192,0,0,0,2.744-8.2c.207-4.108-.224-8.524,3.139-11.853,3.352-.843,3.8,1.94,3.849,3.813.093,3.523-.649,7.061-.873,10.6a26.605,26.605,0,0,0,.416,4.36c1.76-2.9,2.1-6.542,5.922-6.35l-3.721-21.929-2.291,1.592c-.331,1.4-.667,2.81-1.139,4.8l-2.752-2.2,1.653-2.468-6.988-5.738-6.363,4.992c-.347-5.827-3.576-7.293-7.883-7.568.375-1.3.365-2.448.935-3.045,5.245-5.487,10.611-10.857,15.879-16.323.638-.662.781-1.777,1.356-2.527,3.443-4.49,6.811-9.156,13.628-7.766,1.668.34,3.356.58,4.957.853l1.217-1.389,6.24,1.138,4.078-3.229,7.751,1.878c-.229,1.311-.43,2.452-.684,3.905l11.484-2.523-2.727-2.554c4.692-6.773,7.671-15.493,17.813-16.007l2.769,2.31v6.482l9.936-7.847c.156-1.357.4-3.468.666-5.8l4.546.5a15.116,15.116,0,0,0-1.173,3.641c-.161,4.685-1.25,8.624-5.942,11-1.6.812-2.5,2.968-3.794,4.44-4.4,4.992-8.835,9.953-13.256,14.926a15.531,15.531,0,0,0-3.836,5.057c-.9,1.909-1.995,4.053-1.893,6.036.312,6.08,1.115,12.137,1.818,18.192.3,2.616.83,5.207,1.321,8.208a14.194,14.194,0,0,0,7.016-10.563l3.758-2.115.386-4.9,6.8-2.891c-2.666-4.929-.024-7.664,3.153-9.134v-9.1l-4.237-2.595c2.683-4.11,3.755-7.042,5.253-9.738,1.314-2.364,3.293-3.966,6.208-2.313,1.478-2.1,3.044-3.286,4.672-1.836l9.071-2.807,4.009,3.385a68.506,68.506,0,0,1,22.606-16.777c1.372-.61,3.35.251,5.043.224a36.193,36.193,0,0,0,4.343-.6l-5.555-13.948,5.833-4.182V623.01l3.719,1.985,1.145-3.5,2.058,7.02,6.2-.864,3.328,6.008,9.956,5.5c-.776-2.518-1.087-3.529-1.5-4.855Z" transform="translate(239.854 -362.791)" fill="#f8f8f8"/>
      <path id="Path_77378" data-name="Path 77378" d="M949.347,634.254a7.742,7.742,0,0,0,.161-1.737C949.454,633.1,949.4,633.674,949.347,634.254Z" transform="translate(-86.419 -433.968)" fill="#f8f8f8"/>
      <path id="Path_77379" data-name="Path 77379" d="M-447.736,966.5c-.7-3.983.891-8.367,1.483-12.553l-5.689-2.664-13.465.791,6.553-19.9-3.223-1.552-6.95,1.9-3.059,8.244-11.778,2.448-5.193-2.467c-7.089-8.582-8.132-17.239-4.622-26.9a7.34,7.34,0,0,1,2.1-8.554l7.925-5.726,14.934.785,3.079-3.729,14.488,1.811q-.043.406-.085.814l2.587-.884,4.786,3.805c-.017,6.3,1.959,11.15,7.7,15.633.043-3.571.486-6.246,0-8.743a32.607,32.607,0,0,0-3.067-8.809,7.777,7.777,0,0,1,1.419-9.755c3.36-3.475,7.177-6.516,10.871-9.654a1.25,1.25,0,0,1,1.009-.16l6.408-6.164-1.705-7.308c1.884-2.2,4.4-4.024,1.873-7.262,4.793.056,4.295-3.443,4.713-6.523.108-.8,1.361-1.446,2.31-2.381.36,1.515.586,2.466.757,3.186l4.8-1.122-.551-2.255,3.681-2.235h3.884l-4.61-2.73a8.311,8.311,0,0,1,.468-2.453c3.892-6.822,11.009-8.617,17.66-11.054.5-.182,1.482.979,2.471,1.679l-3.9,3.238,1.456,2.535,14.055-7.306.612-2.842-11.466-1.582,2.246-2.8-3.505-2.482,2.628-8.514c-7.36-2.846-12.231,1.354-16.719,5.432-1.94-.782-3.724-1.441-5.435-2.255-.258-.123-.171-.969-.323-2.037l4.337,1.166,11.42-9.541h21.939l4.148-5.109,9.385-3.376V790.7l-3.415-2.13c-1.625-2.456-2.571-5.6-4.14-5.954-5.975-1.331-9.084-5.757-12.765-10.04.041-2.451,1.15-5.225-1.04-7.466,2.146-2.781-5.289-3.333-1.721-5.892l-7.3-12.508c-.984,3.155-1.673,5.368-2.362,7.582l-.606-.389-3.436,5.359-2.5,1.075-6.968-4.392c-.363-4.138-.726-8.274-1-11.384l-13.019-12.631c-4.794,3.9-9.71-1.781-14.8.355l1.467,16.658,1.046.071-3.887,8.755c6.69,3.031,5.136,10.207,7.808,15.44l-11.278,10.487c.668,2.614,1.273,5.889,2.354,9,1.558,4.479.416,7.615-4.4,9.826l-6.974-8.478,4.659-1.408-5.368-2.246c-.168-3.395-.337-6.781-.518-10.42a14.456,14.456,0,0,0-2.842-.285c-6.429.584-11.333-2.739-15.739-6.616-4.509-3.967-9.192-6.33-15.184-4.482l-3.535-10.823-5.005-1.952c-2.148-11.28,4.067-19.294,9.336-27.458l4.006-.743,3.461-8.368c1.025.236,1.894.749,2.45.516,4.635-1.942,6.364-6.108,7.241-10.551.382-1.933.679-2.89,3.047-2.358-.42,4.861,1.918,10.017-2.13,14.6l4.137.935,1.747,3.838,6.017-7.913,7.443,5.207,2.694-3.539-5.142-.532c-.34-1.746-.632-3.247-.819-4.2l-9.676-7.719,5.682-8.6c6.7-3.555,6.888-4.24,3.551-12.173-.645-1.532-.629-3.343-.916-5.014l3.24-1.378c1.947-5.033-3.015-6.2-4.434-9.45l-9.518-1.836,2.341,6.808a77.214,77.214,0,0,0-2.827,7.332c-1,3.7-1.279,7.683-5,10.393l-3.745-5.108,1.358-8.706-4.113-4.683-4.84,7.608c-.488-3.765-.881-6.8-1.252-9.667l-5.269-3.992c.559-1.72,1.016-3.122,1.2-3.679-.97-3.831-1.583-7.078-2.63-10.178a10.665,10.665,0,0,0-7.524-7.25c-.444-.122-1.044.326-1.821.6l1.088,4.629-3.615,1.429,1.083,14.376,6.161,2.6v8.473l2.56-2.3c-1.572,6-4.548,9.618-7.021,9.141l-4.4-3.324,3.519-4.8-1.561-5.333-5.14-4.354-5.517,7.935,4.539,2.674-2.008,4.779,5.64,2.46c-.239.994-.446,1.859-.594,2.471a30.136,30.136,0,0,0-15.077-.222c-2.943-1.044-6.076-1.743-8.773-3.232-2.508-1.385-5.115-3.246-4.512-6.892l-2.605-1.268-8.681,4.768,3.618,2.813v7.15c-1.419-.685-3.732-1.265-3.747-1.9-.087-3.785-2.891-3.333-4.9-3.091a85.9,85.9,0,0,0-9.825,2.3l-9.063-3.448,6.13-3.678-3.918-5.119c-6.734,2.077-11.48-2.9-18.047-4.047l-3.071-3.92h-4.865c-1.963,1.421-1.182,5.369-5.006,4.341-.391-2.168-.786-4.365-1.45-8.052-1.081,3.258-1.71,5.155-2.4,7.233-6.577-.819-4.1-8.285-8.367-10.59l-2.225,5.38-3.43,1.572c-1.785-3.362-3.9-3.194-6.609-.946-2.268,1.885-4.782,4.065-7.5,4.631-2.154.449-4.72-1.017-6.733,1.462.3,1.552.606,3.167,1.148,6l-14.545-7.872-12.14-5.05.191-.888-6.528,1.02a20.688,20.688,0,0,0-3.824-1.953c-3.894-1.137-7.856-2.042-12.809-3.3l-6.287,1.03-4.276-5.084-5.489,1.036-1.013-2.764-3.94,1.972.667-3.152-3.218-1.581-2.532,4.19-6.943,1.52-.495,3.042-8.575,2.461L-720.116,677l-8.746,2.574c-.774,7.656,10.016,7.079,8.9,13.9l4.922,2.509,1.113,3c1.848.2,3.653-2.443,5.9,1.069l-6.073,1.3-2.1,2.367-3.984-1.186-1.566-3.853-5.9,3.526-.883-1.271c-.362,1.359-.563,2.108-.923,3.458l-1.159-1.5L-734,706.538l2.713,2.673,2.089-.107c-1.59,4.35,1.19,5.5,3.834,6.462,2.489-.325,4.927-.125,7.315-.384a56.612,56.612,0,0,0,6.642-1.5c.506,2.8.92,5.093,1.4,7.763l-1.184,2.259-13.846,5.583,1.062,1.18-3.694,6.8,1.388,3.717,7.517,2.075-4.6,4.824c2.806,2.565,5.612,1.977,8.924-.971.592,3.9,1.08,7.124,1.573,10.377l3.875-2.087,4.913,3.033h4.922v6.875l-10.439,9.561c-2.961-.12-5.386,1.246-6.736,4.752l12.22-5.028,18.69-17.1-3.413-3.194,5.546-4.5c1.021-2.216,1.949-4.227,2.9-6.293l3.2.845c-.686,2.2-1.295,4.154-1.9,6.1.474.37.924.722,1.373,1.076q-.766,1.308-1.533,2.612c3.161-1.392,5.494-4.273,8.416-5.12,3.949-1.145,3.549-3.221,2.98-6-.066-.323.237-.721.259-.781l5.112-.607c4.391,5.563,10.316,7.82,17.344,7.428l7.06,2.161,8.145,8.077,4.871-.874c-.547,1.59-1.024,2.974-1.621,4.71l5.89,1.766-1.39,6.516,1.568,3.02,3.765-1.219q-.837-1.321-1.567-2.473l4.006-2.681,2.489,4.586,6.217,4.168c.466,8.9.466,8.9,2.013,10.958l6.368,1.068c-1.9,4.364-1.743,4.942,1.736,6.945a12.1,12.1,0,0,0,2.828.6l-3.3,2.318-2.52,7.03,12.027,10.982c-1.426,4.354,3.323,7.89,2.514,12.643-.882,5.18-1.34,10.432-1.973,15.584.772,5.811,1.544,11.613,1.947,14.65l11.032,19.678c3.934,2.286,7,3.98,9.954,5.841a4.575,4.575,0,0,1,1.822,2.287c2.149,6.879,5.545,12.981,11.061,17.824l-1.951,3.522,7.259,4.865c.941,5.151.941,5.151,5.284,7.631-.465-1.765-.516-3.14-1.146-4.158-3.4-5.485-6.786-10.984-10.488-16.261a13.425,13.425,0,0,1-2.694-7.967c4.556-.265,6.3.193,7.01,2.991,1.7,6.7,6.587,10.866,11.142,15.4.941.937,1.4,2.358,2.189,3.752,3.593,3.834,7.654,7.7,11.087,12.065,1.339,1.7,2.269,4.868,1.614,6.752-1.25,3.6.842,4.6,3,5.929a103.287,103.287,0,0,0,26.47,11.849l9.006-1.962c5.451,8.7,14.24,9.778,22.181,11.349l5.673,6.5c-1.308,3.076.393,4.125,2.831,5.2,2.073.911,3.838,2.522,6.294,4.2l8.74,3.755,2.135-5.527-7.087,1.442C-443.919,972.861-447.137,969.91-447.736,966.5Z" transform="translate(734.001 -441.786)" fill="#f8f8f8"/>
      <path id="Path_77380" data-name="Path 77380" d="M-108.555,1120.505l-.049.047C-108.506,1120.546-108.5,1120.525-108.555,1120.505Z" transform="translate(416.625 -681.61)" fill="#f8f8f8"/>
      <path id="Path_77381" data-name="Path 77381" d="M-126.02,1311.58l.258-.052c.071-.047.138-.077.209-.12l-.378-.056Z" transform="translate(425.462 -778.461)" fill="#f8f8f8"/>
      <path id="Path_77382" data-name="Path 77382" d="M81.709,453.2l-10.357-3.044,4.756-1.544c.077-1.5.148-2.876.169-3.293L87.4,441.3l3.962,8.111h5.771c1.313-6.445-2.075-11.332-4.623-16.169.67-2.108,1.251-3.935,1.971-6.2l-3.869-2.7-3.819,3.26-2.588-6.768,5.4.847L88.475,419l-3-.506L83.7,411.548l7.438,2.969c.184,1.591.378,3.276.625,5.405l9.944-3.528c-1.062-1.769,1.059-4.379-2.122-4.775L96.7,414.712c.151-6.48,7.41-5.754,9.959-10.546l-6.714-2.132,3.313-2.919c-.23-.954-.478-1.985-.705-2.931l3.536-2.068-2.657-11.53-6.116-1.394v-6.224L101.6,370l7.59,2c-.139-2.56-.249-4.572-.35-6.423l-6.332-.967c-.624-2.13-1.1-3.763-1.55-5.3l2.347-1.763-4.937-2.469c.422-11.127,5.118-21.362,7.86-32.322l3.975.294,2.556-5.451-4.858-2.572,7.333-1.191,1.955-3.611-2.02-2.723-5.676.763-.42-1.2,3.217-3.5,5.267,1.271,4.581-3.3.348-2.193,9.212-8.823c.53-9.384-7.976-8.691-13.138-12l-5.978,5.763,2.14,3.889-5.9-1.074-2.963,1.917c-.173-1.941-.31-3.472-.476-5.325l-9.546,14.9c-2.281-5.7,2.026-8.6,2.8-12.472a31.911,31.911,0,0,0,.513-12.128H92.877l-.617,7.1c-4.546,1.383-7.516,5.884-13.552,7.262,1.458-5.827,7.8-5.5,8.938-10.929l-1.073-3.725c-3.5,0-6.771-.471-9.826.13a29.542,29.542,0,0,0-9.116,3.591c-2.513,1.484-4.523,3.821-7.243,6.21v-5.836l10.9-8.405h17.5l9.98-4.137,4.809-6.8c-3.543-5.351-8.564-7.695-14.14-9.1l-2.411-8.323-6.771,3.91-5.9-.262c2.294-1.529,3.933-2.513,5.451-3.659,1.836-1.386,5.382-1.663,3.7-5.742-3.385-1.658-6.324-6.4-10.23-2.069l-6.962-3.8-21.325,1.267L42.517,234.1l-2.772-1.019-9.225,7.178,3.129,2.661-1.675,2.353,3.459,6.448-6.26-2.468c-.22-2.052-.387-3.606-.517-4.818L22.4,241.275l-1.487,4.679c-2.005.674-5.146-2.272-6.135,1.852l3.242,5.079c3.385,1,7.651-1.125,10.2,3.482l-9.18-2.074c-.1,1.11-.163,1.763-.253,2.731l-4.777-1.17c2.681,4.4,2.681,4.4,1.054,6.7-2.2-1.627-3.883-4.93-7.6-2.307l1.91,7.806,5.172,4.541-.584.365,4.389,11.1-3.147.368-5.337-9.863-1.463,1.507-5.3-9.749.192-.471c-2.306-1.156-3.956-4.246-7.521-2.432-2.13,5.022,1.47,8.971,3.085,13.783L-6.491,280l-3.355-9.773,1.854-.457-1.046-1.425h-3.454l-1.532,3.63-2.765-5.086L-32.8,273.3v2.645l-5.676,3.579c.245,4.253.422,7.332.6,10.411A6.881,6.881,0,0,0-36.58,294.7c1.493,2.094,1.208,3.611-1.226,5.255-1.12-1.572-2.135-3.227-3.376-4.689-2.028-2.388-3.876-1.911-5.8.9-2.407,3.524-5.129,6.832-7.656,10.276-1.379,1.879-2.636,3.848-4,5.858l1.952,4.042,8.707.608v8.409l-4.9,8.877-9.186,2.1c-2.127,6.024-8.864,5.426-12.6,9.378l-1.625,4.967,6.2,7.557,1.365-1.525c2.365,1.025,1.889,5.273,5.354,4.739,2.665-.411,5.222-1.52,8.609-2.56.179,1.542.381,3.274.6,5.163-6.766-.709-12.066,1.333-18.269,4.977l11.656,6.059-4.465,3.365c2.394,3.039,4.995,5.639,9.162,5.228l1.484-3.409,3.575,2.383,3.779-3.392c1.654.64,3.132.151,4.571.248a58.542,58.542,0,0,1,6.473,1.145c3.236,4.477,12.25,5.707,8.919,14.738l5.646,4.173c-.03,3.12,3.818,6.406.02,9.911l4.108,2.349-2.121,1.572,3,3.41c.159,1.881.292,3.452.39,4.609L-14,423.061v8.147l2.934-2.583c.667,2.952,1.173,5.189,1.577,6.977,5.172,3.853,6.5,9.46,7.331,15.8l-6.08-3.9c-.351-.021-1.345-.028-2.322-.155-.852-.11-1.687-.357-2.691-.578,0,1.987.459,3.656-.079,4.891-2.315,5.306-2.376,5.6,1.708,10.255l4.826-2.247c1.6-1.881-1.3-4.342,2.157-4.8C-2.3,459.156-1.326,463.7-2.7,468.138l-7.455,3.564,1.492,2.889,8.016.6c-.441,1.376-.672,2.248-1.034,3.063-.057.127-.715-.015-1.1-.036-.059-.642-.116-1.28-.2-2.238l-5.93,1.827c-.287,1.713-.566,3.382-.844,5.039l2.4.731v1.946l2.63-.572.723,1.14-3.673,3.73,3.086,1.306-2.727,2.383c.669,4.079.939,7.237,1.75,10.249.835,3.1.813,7.074,5.7,7.343.65,8.35,4.592,15.334,10.426,18.892l6.16-2.677v4.309l7.933,4.031c.937-6.752,1.768-12.747,2.667-19.227l2.475-5.464,3.251-.5c-.461-3.913-.886-7.525-1.314-11.139,3.956.649,3.846-2.875,5.139-5.2l5.993-.277q.443-2.258.76-3.873l4.611,2.5c.865-1.457,1.434-3.8,2.7-4.264,2.818-1.046,3.926-2.764,4.627-5.492,1.83-7.12,7.79-10.321,13.856-12.405,9.865-3.388,9.94-3.065,16.4-8.246,1.919-1.539,4.3-2.5,6.45-3.71.268-1.282.532-2.547.822-3.934l-7.763-3.25Z" transform="translate(400.225 -229.389)" fill="#f8f8f8"/>
      <path id="Path_77383" data-name="Path 77383" d="M20.927,1350.08c-7.409,1.364-9.838-6.4-14.914-8.035l-13.337-1.1-2.589,1.561c-.324-1.588-.594-2.91-1.029-5.038l-19.583-5.229c-.015-.285-.267-.992-.033-1.451a31.8,31.8,0,0,1,1.946-3.069c-1.525-2.528-3.416-4.646-4.121-7.1-.792-2.76-2.515-4.017-4.559-5.7-4.666-3.842-10.046-2.919-15.206-3.247l-12.339-9.7-4.584-4.205,3.17-2.792a46.827,46.827,0,0,1-23.739.83l-4.114-3.209c-3.337.275-6.11,3.551-8.915.6l1.529-2.89-12.841,5.54-5.467,8.441c-3.3-2.167-5.611-6.376-10.177-3.558l3.359.5,4.862,8.259c.142,2.974.311,6.5.524,10.966-1.954,2.181-4.816,4.836-7,7.963-2.424,3.465-6.417,6.555-3.942,11.3l2.6,2.854-5.157,4.41,1.617,6.134c4.747,3.306,14.228,20.242,15.561,28.242,2.564,2.016,5.175,5.355,8.5,6.385,4.984,1.543,7.88,5.025,9.851,6.945,5.392,9.282,1.393,17.23,1.231,25.057-.163,7.876-2.875,15.7-4.469,23.545.8,2.326,1.561,4.78,1.043,6.924a78.568,78.568,0,0,1-4.82,15.024c-2.069,4.39-3.02,8.439-1.609,11.284l-2.032,10.826,5.368.928-3.64,1.368c3.755,3.219,1.422,6.954,1.061,10.559.606.473,1.213.943,1.464,1.138l-3.853,9.431-2.954-2.694-1.528,3.008,5.531,8.194-2.916.716c-.16,3.481,2.587,6.84-.333,9.763l-4-1.075,2.951,3.773,4.371-.347-1.872,2.63,2,3.883,1.468-2.54,1.254,1.066c-.12.854-.241,1.708-.39,2.762l6.54,4.379,2.918,5.89-3.147,5.594,7.381.824,2.128,2.889,3.724-2.575h5.655l-7.775-5.269-5.254-9.389,1.067-.972c-.673-3.039-1.289-5.823-1.868-8.439l4.575-3.846-.561-.374,8.541-12.3c-2.586-2.469-7.123-2.235-6.895-7.755,1.163-1.026,2.641-3.028,4.616-3.887,2.22-.966,2.665-2.554,3.188-4.43.664-2.387,1.4-4.752,2.164-7.3l-1.825-8.109h9.463c.714-3.334,1.318-6.161,1.943-9.083,1.209,0,2.2-.015,3.2,0,7.421.133,12.436-2.294,15.165-10.18a11.361,11.361,0,0,1,4.747-5.816c7.368-4.038,9.933-12.076,15.414-17.653,2.28-2.32,3.76-5.461,5.425-8.333a10.051,10.051,0,0,0,1.051-3.679c.413-3.14.675-6.3,1.012-9.589l14.189-8.384h6.883c9.333-10.1,11.427-22.454,11.2-33.127,5.19-8.653,12.22-13.406,14.474-21.652C22.641,1354.975,21.877,1352.791,20.927,1350.08Z" transform="translate(429.882 -767.779)" fill="#f8f8f8"/>
      <path id="Path_77384" data-name="Path 77384" d="M1346.713,1503.11l-8.318-9.355.566-.458-3.6-1.966c-1.263-5.746-5.589-8.675-10.286-11.092-3.892-6.232-1.989-15.4-9.642-18.691l-3.668-9.923-1.353-.015c-.539,3.375-1.434,6.741-1.532,10.128a32.858,32.858,0,0,1-2.984,13.151h-4.755c-3.673-4.941-11.549-4.429-14.119-11.286l4.342-1.159c-.567-2.128-1.1-4.147-1.473-5.531l-13.332-3.636c.189.766.369,1.5.723,2.937l-5.556-2,.634,2.107-4.182,3.605c-.095,1.805-.168,3.192-.239,4.541l-5.483,1.62-2.647-4.085-7.235,3.019c.86,4.509-4.674,4.281-5.663,7.474l-2.832-.266-4.2,9.14-24.515,8.716-2.532,8.8c.938,3.8.729,7.683,1.566,11.325,1.127,4.907,3.031,9.639,4.655,14.427,1.527,4.5,2.276,8.913-1.084,13,1.412,1.042,2.822,2.081,4.2,3.094h6.815c4.847-5.136,11.217-4.518,17.416-3.892a15.487,15.487,0,0,1,12.3-6.97c4.783-.406,9.449-2.2,14.159-3.375,1.222.793,2.357,2.151,3.513,2.17,4.342.07,6.842,2.439,8.786,5.92.982,1.758,2.184,3.392,3.078,4.761,2.587-.149,2.308-4.985,6.075-2.493v5.579l2.984-4.926c.522,2.459.409,4.617,1.148,4.964,4.3,2.017,3.074,7.292,5.757,9.623,2.925,2.541,7.095,3.648,10.869,5.45l4.483-3.788,3.854,3.309,12.6-5.627a40.463,40.463,0,0,1,1.483-6.391c1.592-4.185,2.718-9.022,5.622-12.087,2.433-2.57,3.081-5.165,3.839-8.059.835-3.188,1.461-6.43,2.1-9.288a66.446,66.446,0,0,1-2-7.017A37.917,37.917,0,0,1,1346.713,1503.11Z" transform="translate(-220.132 -849.64)" fill="#f8f8f8"/>
      <path id="Path_77385" data-name="Path 77385" d="M-237.192,346.952l9.219-2.659c.1,1.432.212,2.913.3,4.111l2.2,1.122-.256.625-4.514-.3,2.132,1.991-5.973.293,7.992,8.035c-.564,0-1,.009-1.429,0-.5-.013-1-.044-1.562-.07.967,5.155,5.143,5.523,8.531,6.714l5.847-2.135c.308-1.619.588-3.088.774-4.062l3.176-1.439-1.841-1.2L-209,354.7c2.575,3.5-.694,5.381-1.627,7.88l1.483,3.23,8.331,3.444-1.351,5.2,3.385,3.02-3.99.251c-2.857-5.988-6.025-7.1-9.627-4.118l3.154,8.869-7.41,3.888c.256,3.007.434,5.111.535,6.3,5.067,4.771,7.247-2.751,11.073-1.526-.157,1.209-.265,2.046-.387,2.979h5.127l1.054-3.113,3.518,2.8,7.62-2.006c.323,1.868.542,3.14.926,5.364,3.492-3.232,6.544-5.928,9.371-8.843.344-.355-.527-1.887-.809-2.79l-2.64,2.3-1.2-6.231,4.274-5.141c-.265-2.026-.582-4.447-.962-7.35l4.963,1.125,5.271-3.2c-1.809-5.22,4.007-10.245-.814-15.413l2.912-.679-.333-2.97-3.658-.53c1.613-4.107,4.767-4.235,6.669-4.12,3.061-1.919,5.076-3.11,7.006-4.427.8-.548,2.142-1.566,2.013-2.023-.967-3.41,2.175-4.844,3.332-7.137a141.6,141.6,0,0,1,8.041-13.51c1.808-2.766,4.048-5.251,6.094-7.862,1.542-2.319,5.929-2.66,4.393-7.391l-5.23,2.162a9.22,9.22,0,0,1-1.259-1.874,6.334,6.334,0,0,1-.039-1.772c5.8-4.213,5.8-4.213,8.256-4,4.412-4.4,9.944-8.078,11.072-15.875l-6.818-3.415,1.516-1.018c-3.44-1.917-2.739-7.7-7.709-8.066l-1.008,1.287-1.065-1.42-3.241,3.616c-.194-2.453-.3-3.788-.389-4.922l-10.007-2.783-2.11-2.514c-6.114,1.893-11.967,1.447-14.76-.657l-8.524.984-3.152,5.729-6.879-1.275-1.26,3.207-3.508.675,1.673,3.914h-3.976l-2.957,9.487-8.947-4.522v5.935l-3.962.819-2.315,6.416-1.692-3.551a29.567,29.567,0,0,0-3.177,1.715c-1.521,1.083-2.825,2.519-4.439,3.409-2.281,1.257-4.4,2.563-5.535,5.021.508.837,1.016,1.673,1.426,2.347l3.469-2.872,1.182.847-1.739,4.6,4.581,4.711-4.436,1.7,4.747,3.828c-.094.469-.274,1.366-.484,2.41l5.429,5.129,2.028-2.524,2.6,3.485c4.912,2.714,8.513.274,12.175.015,3.974-.28,7.753-3.312,11.412-5.046l-.965-4.226,5.322,4.88c-2.13,1.186-4.293,1.66-5.094,2.968-2.729,4.461-7.31,5.444-11.614,6.786-.162,1.932,2.432,3.752-.446,5.5l-2.531-3.215-8.865-1.535v5.281l3.241,1.277-4.865,1.046,2.32,5.677c-5.1-1.474-2.9-5.209-3.751-7.4l-2.886-2.014,1.214-.738q.307-2.5.614-5l-10.567-3.813c-1.294-3.745-2.535-7.86-4.147-11.823a8.01,8.01,0,0,0-6.492-5.213c-.31-.044-.675.3-1.733.819l2.621,4.028-1.765,3.245-4.126-.421c.369,2.221.637,3.835.873,5.249l-4,10.186,3.777,1.993-5.171.792Z" transform="translate(483.99 -244.779)" fill="#f8f8f8"/>
      <path id="Path_77386" data-name="Path 77386" d="M-123.1,637.784l-5.866-1.673L-134.224,628l-3.592,2.434a19.65,19.65,0,0,1-7.839-12.443c-3.731-.2-5.616-2.284-4.794-6.152l-7.882-.546-3.79-6.634c-4.72.28-8.77-2.629-13.042,1.91-3.658,3.886-5.444,7.371-4.579,12.412.552.052,1.1.1,1.792.164v1.624l-5.25,4.375c-.552-4.071-1.019-7.517-1.559-11.5a50.55,50.55,0,0,1,2.238-5.5,56.2,56.2,0,0,1,3.613-5.316c-7.385-1.419-12.753,2.092-14.117,9.317-1.081,5.731-1.654,11.558-2.473,17.49l9.26,2.484-6.669,2.942c.941,3.2,2.744,5.2,6.35,5.109a4.91,4.91,0,0,1,2.745.69,17.366,17.366,0,0,0,11.956,2.806c.188-.944.314-1.691.5-2.421.031-.117.347-.161.76-.334,2.668,2.184,7.523.458,9.308,5.222l6.482-4.62,6.231,7.276-1.383.584c.133,1.707.23,3.418.43,5.116.036.308.493.566.879.979l2.886-1.626a21.873,21.873,0,0,1,11.07,16.548l-6.855,9.365,2.763,4.878c-4.533,1.569-8.337,3.931-12.78.991l-3.832,6.147c2.914,2.684,4.71,2.692,7.24,1.183,1.826-1.09,4.453-.838,7.225-1.262l8.775,8.378c-.17.814-.351,1.674-.5,2.37,2.976,2,5.506,4.081,8.357,5.528a93.163,93.163,0,0,0,9.549,3.677l.564-.913-8.026-8.687,2.833-1.661,8,4.714,1.109-.763c-.457-1.766-1.59-3.687-1.229-5.267.769-3.365-.765-5.158-2.772-7.509a38.241,38.241,0,0,1-5.818-9.978c-1.382-3.279-.329-4.808,2.914-6.2l6.268,5.5c-.419,2.923.706,5.2,4.414,6.281l1.043-3.81,2.762-.783c.18-1.742.341-3.3.413-4l2.868-3.691c-3.308-2.247-7.062-3.462-8.214-5.9-1.6-3.387-3.725-3.972-6.487-4.476-3.124-2.593-6.472-4.848-9.762-7.184a8.318,8.318,0,0,1-1.407-1.909l3.481-1.553c-.079-.935-.152-1.794-.211-2.495l1.339-.465Z" transform="translate(460.724 -418.746)" fill="#f8f8f8"/>
      <path id="Path_77387" data-name="Path 77387" d="M-362.034,643.582a9.028,9.028,0,0,0,.886-2.707l-4.149.286-.178-1,7.148-3.345c-.03-.653-.082-1.779-.124-2.686-5.22-2.808-10.341-5.1-12.356-10.811,2.41-7-4.1-12.531-3-19.855l-7.589-4.452-1.284.793c.733,5.215,1.466,10.431,2.194,15.609-.839.3-1.582.574-2.326.842-1.933-3.727-.477-9.125-5.64-11.591l-5.1,5.478c-.48-2.182-.807-3.669-1.231-5.6l-7.969-1.1-1.173-4.92a17.7,17.7,0,0,1-2.331,1.012,16.757,16.757,0,0,1-2.147.225c.408-5.006.408-5.006-7.366-11.939l-4.143,1.584-7.987-4.979-10.88,1.88,2.42,7.588c-2.08,6.655-4.138,13.236-6.2,19.817,4.819,1.443,7.283,5.326,8.955,9.692l7.667-4.419-.711-.371L-420,605.764l5.093-3.03c-.408,2.553-2.828,4.962-2.347,6.4,1.193,3.576-3.332,4.35-2.564,7.549l7.95,4.985-5.216,2.994,2.49,4.38c3.531-.5,7.024-.924,10.491-1.506,3.662-.615,5.806.933,5.847,4.635-5.278.755-11.124-1.022-16.216,3.207l5.592,6.782h7.276c.375,2.337.68,4.235,1.045,6.513,2.1.114,3.9.549,5.564.243,6.682-1.227,13.194-2.979,18.1-7.547l3.7,2.34-.353,2.871,2.832-1.993C-366.945,647.127-364.633,646.855-362.034,643.582Z" transform="translate(586.094 -409.56)" fill="#f8f8f8"/>
      <path id="Path_77388" data-name="Path 77388" d="M-302.7,710.633l-.228.161c-.005.029-.006.056-.011.084l.2.1C-302.725,710.861-302.71,710.746-302.7,710.633Z" transform="translate(515.241 -473.61)" fill="#f8f8f8"/>
      <path id="Path_77389" data-name="Path 77389" d="M502.539,435.71h8.09l-1.68,2.908,2.7,3.232,3.6-7.66,7.34,3.045-10.265,8.2v2.138l3.451,1.874-2.848,5.261,6.924,6.944-.395,1.559,2.9,2.419c2.032-4.751.46-10.661,5.216-14.709v-6.766l2.336-1.368v-7.464l8.6-4-9.832-6.645v-6.358l-2.728,2.513-.942-.461c.477-1.758.953-3.516,1.754-6.469l-6-5.063c-.609,2.492-1.015,4.125-1.407,5.763-.372,1.556-.729,3.117-1.366,5.85l-2.386-6.221-2.766,2.308-1.661-3.818-4.489,1.862c-.84-.587-1.228-.89-1.654-1.124-.071-.039-.306.218-.465.338-2.681,6.561-2.67,6.65,1.686,13.589v5.493Z" transform="translate(140.326 -320.458)" fill="#f8f8f8"/>
      <path id="Path_77390" data-name="Path 77390" d="M-214.362,544.108l.5.689-1.237,2.368c5.316,2.052,10.547.159,15.652.576l3.114-2.636,4.241,2.852,7.286-2.137-1.815-1.945,2.653-1.129-2.708-1.06,3.345-4.561c-6.575-6.534-6.575-6.534-17.857-4.153l-4.495,2.525-9.919-1.729-4.388-5.992,2.42-3.645-6.527-2.953,2.76-1.109q.016-.427.032-.853l-8.375-.443c-2.231-4.577-6.728-6.009-12.068-5.716-1.478,4.588,2.68,7.05,3.8,10.619h9.512c.633,2.928,2.64,6.589,1.729,9.252-1.552,4.535.436,7.992.948,12.012l7.289,1.817Z" transform="translate(484.348 -373.326)" fill="#f8f8f8"/>
      <path id="Path_77391" data-name="Path 77391" d="M1069.031,383.518l1.114.921-3.692,5.777,2.876,2c.613,2.583,1.195,5.03,1.793,7.548l5.87,1.015,3.611,3.292,6.693-1.465V383.34l-6.693-2.829c-3.933-5.242-1.941-10.421-.069-14.616-4.283-2.6-4.19-7.4-7.147-9.878a33.351,33.351,0,0,1-3.974,4.25,31.337,31.337,0,0,1-4.932,2.625c-.449,2.3,1.618,4.1.122,6.233-1.4,1.995-2.445,4.24-3.617,6.323l5.227,6.925-6.6-1.373-1.184,5.772,5.277,1.432Z" transform="translate(-141.772 -293.65)" fill="#f8f8f8"/>
      <path id="Path_77392" data-name="Path 77392" d="M1214.99,1333.624l-6.032-4.969-15.244,13.066-4.366.884-1.459,4.113c-2.4-.456-5.1-2.691-6.62,1.671l4.878,12.32,12.7,2.057,4.294,2.468,9.51-18.653C1209.408,1340.476,1209.76,1337.4,1214.99,1333.624Z" transform="translate(-204.116 -787.243)" fill="#f8f8f8"/>
      <path id="Path_77393" data-name="Path 77393" d="M1386.068,1397.714c-8.689-3.994-17.379-8.706-26.82-8.4l-5.922,5.489-4.4-4-5.833,1.261c6.144,4.89,13.237,4.744,19.065,7.976l4.717,8.613,6.719,4.591h4.4l5.9-6.162,5.839,2.964,6.1,6.97,6.234-.328-10.03-10.723,3.13-1.623Z" transform="translate(-286.236 -818.018)" fill="#f8f8f8"/>
      <path id="Path_77394" data-name="Path 77394" d="M-382.923,531.322l4.582,3.147-5.7.46c-.452,2.249-.881,4.385-1.341,6.676,5.043,2.741,10.233,1.636,15.824,1.909l-5.085,6.073,4.149,3.588,13.26-8.2,7.815.384a12.935,12.935,0,0,0,3.143-14l-7.248-.44-2.685-11.469-4.91,6.22,3.4,3.952c-.263,1.27-.491,2.374-.718,3.479.916,1.174,1.83,2.346,3.571,4.581l-9.388.442-5.535-10-3.522.492-2.435-4.795C-379.088,525.628-381.794,527.735-382.923,531.322Z" transform="translate(557.086 -376.585)" fill="#f8f8f8"/>
      <path id="Path_77395" data-name="Path 77395" d="M746.323,1467.281a18.92,18.92,0,0,1-11.56,9.319c-1.588.482-2.708,2.5-3.914,3.688.673,3.445,1.237,6.332,1.924,9.845-5.748,5.29-3.84,11.648-1.312,18.443h8.787l9.873-35.231,1.187-.54-2.227-8.613A22.092,22.092,0,0,0,746.323,1467.281Z" transform="translate(25.397 -856.025)" fill="#f8f8f8"/>
      <path id="Path_77396" data-name="Path 77396" d="M391.1,895.328l4.206-.7,2.967,8.132-4.894,2.795c2.263,3.122.591,4.8-1.865,6.152l3.936,2.373-3.657,4.5,2.248,1.637c5.369-3.537,11.478-1.948,17.1-3.63-.224-1.517-.41-2.783-.589-4l2.3-3.146c-2.019-2.546-3.966-4.525-5.349-6.841-3.331-5.578-6.4-11.313-9.273-16.454.895-2.93,1.648-5.4,2.38-7.8l-5.821-1.771,2.107-4.974-6.461,1.883c-2.773,6.12-1.725,11.757,1.622,16.873C391.724,892.129,391.445,893.563,391.1,895.328Z" transform="translate(198.02 -555.302)" fill="#f8f8f8"/>
      <path id="Path_77397" data-name="Path 77397" d="M552.635,405.135l7.264.811c-.282,1.168-.635,2.627-1.019,4.218l3.567,3.21,5.3-.711,2.344,3.171,6.228-3.02,6.386-9.347c1.059-7.256-6.79-4.068-9.105-7.521l-2.945,2.645c-.641-1.9-1.142-3.391-1.643-4.88l-1.144.044L567,400.982l-8.623-7.081-6.112,4.59,2.173,2.341Z" transform="translate(115.092 -312.778)" fill="#f8f8f8"/>
      <path id="Path_77398" data-name="Path 77398" d="M1350.945,1081.306c-3.523.88-4.871,2.886-5.516,5.861a2.363,2.363,0,0,1-.666.215c-9.486-.594-9.453-.561-15.681,5.476-1.531,1.484-3.365,2.655-5.029,4.007-.209.169-.23.57-.405,1.045l3.145-.4c-1.06,2.57-.535,4.725,1.409,7.474l3.086-6.44,10.948-4.5c-.784-1.571-1.371-2.747-1.959-3.923l1.241-.58,3.12,5.387,3.881-4.784,2.187.652,9.74-3.855c1.5-5.344,3.166-11.247,5.156-18.316l-2.858-5.215c-4.958,1.127-3.688,4.153-3.079,6.647C1358.192,1075.142,1356.3,1079.968,1350.945,1081.306Z" transform="translate(-276.37 -652.633)" fill="#f8f8f8"/>
      <path id="Path_77399" data-name="Path 77399" d="M810.843,564.581l2.16-9.417,13.586-15.285a120.031,120.031,0,0,1,18.268-11.224,13.427,13.427,0,0,0,7.016-7.622,3.329,3.329,0,0,0,.016-1.088,5.054,5.054,0,0,0-.763-1.011,20.376,20.376,0,0,0-1.97-1.172c-6.09,4.955-10.928,13.053-20.18,10.579-1.422,1.351-2.342,2.969-3.581,3.268-4.417,1.066-6.929,4.133-9.332,7.582-1.84,2.642-3.975,5.078-6.244,7.94,2.028,5.636-3.331,8.438-5.9,13.476Z" transform="translate(-12.616 -375.732)" fill="#f8f8f8"/>
      <path id="Path_77400" data-name="Path 77400" d="M1159.479,1413.319v.212l.123.059c.022-.078.044-.155.067-.233C1159.606,1413.343,1159.542,1413.333,1159.479,1413.319Z" transform="translate(-193.056 -830.208)" fill="#f8f8f8"/>
      <path id="Path_77401" data-name="Path 77401" d="M1113.068,1358.563l.334-2.373-22.2-17.647-5.364-.324-1.04,1.354c1.343.843,2.7,1.659,4.026,2.534,6.917,4.58,10.6,11.94,14.736,18.589,3.329,5.346,6.969,9.9,12.227,13.08,1.624.984,3.827,1.012,5.792,1.432v-8.188Z" transform="translate(-155.16 -792.096)" fill="#f8f8f8"/>
      <path id="Path_77402" data-name="Path 77402" d="M-252.169,552.5l1.964-5.7-4.21-6.632c-3.77-.522-8.774,3.892-11.4-3.143v-9.139c-3.252-3.919-7.821-.893-11.311-2.584l-2,2.717a48.111,48.111,0,0,1-.4,6.344,42.466,42.466,0,0,1-1.871,5.437l9.051-.747-2.365,4.027,1.889,4.841,4.411-1.279,2.412-5.629,5.928,2.442c-.2,1.81-.355,3.253-.551,5.047Z" transform="translate(504.312 -379.555)" fill="#f8f8f8"/>
      <path id="Path_77403" data-name="Path 77403" d="M-281.823,609.93l-1.9,2.135,14.01,16.384,6.01-5.741c.435-2.6.818-4.9,1.3-7.776l-2.557-3.625,1.841-1.583-4.533-1,3.547-8.8-7.725,1.4-3.412-2.442-4.583,6.107,3.592,1.307,1.244,6.8h-4.135Z" transform="translate(505.491 -416.9)" fill="#f8f8f8"/>
      <path id="Path_77404" data-name="Path 77404" d="M1385.09,558.783l-.493-2.333c5.386-1.525,10.9,1.952,16.264-2.456l2.331-6.9-5.308-3.232-3.405,7.055c-1.29-1.466-1.763-2.637-1.526-3.64a14.212,14.212,0,0,1,1.766-3.345l-2.348-3.49-3.138.564c.406,1.994.776,3.807,1.187,5.826h-2.57l-5.732-7.654-5.742,4.52c.251,3.222.453,5.8.732,9.375C1378.709,555.037,1380.041,559.287,1385.09,558.783Z" transform="translate(-303.128 -386.599)" fill="#f8f8f8"/>
      <path id="Path_77405" data-name="Path 77405" d="M302.06,766.345l-5.374-6.658-11.415,2.467-9.571,6.132,1.533,7.7,8.494,3.741,13.551-7.734Z" transform="translate(255.443 -498.503)" fill="#f8f8f8"/>
      <path id="Path_77406" data-name="Path 77406" d="M-217.153,597.625c-7.052-4.3-14.055-4.574-17.268-.644l1.341,1.108c-2.982,2.545-1.761,6.046-1.627,9.113.144,3.3,1.234,6.556,2.033,10.417l4.983.268-1.711-8.261,6.579.332Z" transform="translate(480.8 -414.525)" fill="#f8f8f8"/>
      <path id="Path_77407" data-name="Path 77407" d="M-299.783,451.131l11.847,2.243,2.9,6.5,3.972-.5c-.834-4.393-1.364-8.467-2.485-12.371-.378-1.315-2.256-2.2-3.448-3.281l-.643.558-.867-2.554-9.344-8.168c-4.073,1.635-4.073,1.635-4.38,4.293l5.859,7.919C-299.48,447.657-301.729,449.294-299.783,451.131Z" transform="translate(514.885 -333.003)" fill="#f8f8f8"/>
      <path id="Path_77408" data-name="Path 77408" d="M-412.6,521.414l2.029-2.135-2.655-1.921,3.875-.5c.7-2.795,1.35-5.382,2-7.97l1.3.05q.807,3.38,1.615,6.762l.957-.133c.24-1.264.479-2.529.7-3.693l3.477-1.513c-.362-2.281-.694-4.383-1.072-6.772l2.252-3.158-3.058-3.2-.831,2.6-7.494.993c-3.709,5.675-6.375,11.707-12.768,14.742l1.925,4.062Z" transform="translate(575.8 -365.309)" fill="#f8f8f8"/>
      <path id="Path_77409" data-name="Path 77409" d="M1116.166,458.361l6.228-4.317c5.526-.706,11.347-.293,13.595-7.169l-6.029-8.351-3.79.7,1.208-4.916-.883-.73c-1.307.961-3.321,1.654-3.8,2.927-2.654,7.016-4.933,14.174-7.342,21.283Z" transform="translate(-170.661 -333.01)" fill="#f8f8f8"/>
      <path id="Path_77410" data-name="Path 77410" d="M1600.619,1685.871l-4.99,8.955c-5.775,4.131-12.058,7.466-14.3,14.834l9.583,3.277,6.71-12.46,2.883-1.575c.349-4.4,6.9-6.536,5.339-11.216Z" transform="translate(-407.139 -968.521)" fill="#f8f8f8"/>
      <path id="Path_77411" data-name="Path 77411" d="M27.333,958.914c-.7.656-1.649,1.164-2.026,1.946-2.69,5.6-5.263,11.256-7.9,16.953l15.786,1.507,4.129,3.191c1.669-3.817,1.472-4.771-2.653-13.181l-5.325.455L26.9,963.673C27.364,962.565,29.973,961.333,27.333,958.914Z" transform="translate(352.676 -599.607)" fill="#f8f8f8"/>
      <path id="Path_77412" data-name="Path 77412" d="M792.093,643.365h8.238c-5.733-8.349-5.985-16.843-2.649-25.7h-6.8l-3.059,12.45-4.621,2.862c3.813,2.755,6.887,4.977,9.961,7.2C792.869,641.053,792.572,641.938,792.093,643.365Z" transform="translate(-2.107 -426.429)" fill="#f8f8f8"/>
      <path id="Path_77413" data-name="Path 77413" d="M368.927,931.967c.521-4.382,1-8.391,1.475-12.4l.808.056-1.629-3.634h-6.19l-1.413,5.552-4.119.183c-.068,1.394-.125,2.545-.181,3.7l.873.131,2.817,4.592-5.287,4.125C361.884,938.4,364.456,931.563,368.927,931.967Z" transform="translate(214.649 -577.824)" fill="#f8f8f8"/>
      <path id="Path_77414" data-name="Path 77414" d="M1637.35,1652.331l-1.026-4.988c-5.48,2.912.107,9.722-5.629,11.68l5.06,4.323-2.41,4.08,3.463,2.019c1.655-3.917,3.148-7.447,4.692-11.1,3.281-.475,3.916-2.7,3.532-5.138Z" transform="translate(-432.189 -948.969)" fill="#f8f8f8"/>
      <path id="Path_77415" data-name="Path 77415" d="M1405.458,1022.933l-4.35,12.483,7.1,1.193,8.021-4.645,1.57-3.721C1410.457,1031.883,1408.738,1025.294,1405.458,1022.933Z" transform="translate(-315.677 -632.095)" fill="#f8f8f8"/>
      <path id="Path_77416" data-name="Path 77416" d="M1262.828,1380.227l-6.062,1.791-3.477-2.51-2.52,7.367,2.771,9.472.932-.178c.2-2.96.407-5.921.669-9.72l5.514,6.923,2.077-1.137c-1.018-2.7-2.023-5.366-3.115-8.262l3.548-3.141Z" transform="translate(-239.383 -813.049)" fill="#f8f8f8"/>
      <path id="Path_77417" data-name="Path 77417" d="M572.081,465.248c.562,5.787,1.054,10.852,1.537,15.838l4.614-1.614.809,3.008c3.585-1.32,2.913-4.542,3.26-6.225l-3.972-6-2.649-.618v-3.961Z" transform="translate(105.036 -349.082)" fill="#f8f8f8"/>
      <path id="Path_77418" data-name="Path 77418" d="M-249.28,464.441l.63,5.143,6.4-2.493c-.171-2.569-.3-4.564-.438-6.574l-9.232-7.179-1.208.669c.321,2.7.643,5.4,1,8.381Z" transform="translate(489.969 -343.038)" fill="#f8f8f8"/>
      <path id="Path_77419" data-name="Path 77419" d="M1178.571,1418.022c-3.74.255-6.6,1.123-9.053.459-3.612-.979-6.938-3.009-10.381-4.611l-.574,2.016c2.9,3.491,4.942,4.665,8.694,5.135,2.885.362,5.753.884,8.644,1.184,3.826.4,7.638,2.284,12.335.231Z" transform="translate(-192.593 -830.487)" fill="#f8f8f8"/>
      <path id="Path_77420" data-name="Path 77420" d="M1429.344,1684.73c.816,5.23,1.405,9.829,5.647,12.6l5.063-3.268c.418-2.283.9-4.93,1.611-8.8l-7.269,1.531Z" transform="translate(-330.008 -967.943)" fill="#f8f8f8"/>
      <path id="Path_77421" data-name="Path 77421" d="M-347.131,486.67l-3.316-5.451,3.865-2.142-1.8-1.925-12.244,4.887,5.359,7.389Z" transform="translate(544.516 -355.123)" fill="#f8f8f8"/>
      <path id="Path_77422" data-name="Path 77422" d="M-156.528,1214.531c7.96-4.1,13.416,1.421,19.178,1.944l5.112,5.576h8.268q.044-.521.088-1.043c-6.018-3.071-11.944-6.343-18.086-9.142C-146.079,1209.992-152.245,1211.118-156.528,1214.531Z" transform="translate(440.944 -727.517)" fill="#f8f8f8"/>
      <path id="Path_77423" data-name="Path 77423" d="M1446.229,568.958l6.737-.44c.119-1.692.216-3.08.332-4.723-4.907-.865-8.845-3.971-13.921-2.125C1439.835,565.959,1445.28,565.4,1446.229,568.958Z" transform="translate(-335.098 -397.722)" fill="#f8f8f8"/>
    </g>
    <g id="Group_17291" data-name="Group 17291" transform="translate(752.66 8995.018)" opacity="0.3">
      <circle id="Ellipse_5683" data-name="Ellipse 5683" cx="13.899" cy="13.899" r="13.899" transform="translate(0 0)" fill="#f23801" opacity="0.28"/>
      <circle id="Ellipse_5684" data-name="Ellipse 5684" cx="6.584" cy="6.584" r="6.584" transform="translate(7.315 7.315)" fill="#f23801" opacity="0.88"/>
    </g>
    <g id="Group_17292" data-name="Group 17292" transform="translate(1195.949 9404.658)" opacity="0.3">
      <circle id="Ellipse_5683-2" data-name="Ellipse 5683" cx="13.899" cy="13.899" r="13.899" transform="translate(0)" fill="#f23801" opacity="0.28"/>
      <circle id="Ellipse_5684-2" data-name="Ellipse 5684" cx="6.584" cy="6.584" r="6.584" transform="translate(7.315 7.315)" fill="#f23801" opacity="0.88"/>
    </g>
    <g id="Group_17293" data-name="Group 17293" transform="translate(1396.383 9546.57)" opacity="0.3">
      <circle id="Ellipse_5683-3" data-name="Ellipse 5683" cx="13.899" cy="13.899" r="13.899" transform="translate(0)" fill="#f23801" opacity="0.28"/>
      <circle id="Ellipse_5684-3" data-name="Ellipse 5684" cx="6.584" cy="6.584" r="6.584" transform="translate(7.315 7.315)" fill="#f23801" opacity="0.88"/>
    </g>
    <g id="Group_17294" data-name="Group 17294" transform="translate(689.75 9546.57)" opacity="0.3">
      <circle id="Ellipse_5683-4" data-name="Ellipse 5683" cx="13.899" cy="13.899" r="13.899" transform="translate(0)" fill="#f23801" opacity="0.28"/>
      <circle id="Ellipse_5684-4" data-name="Ellipse 5684" cx="6.584" cy="6.584" r="6.584" transform="translate(7.315 7.315)" fill="#f23801" opacity="0.88"/>
    </g>
    <g id="Group_17295" data-name="Group 17295" transform="translate(1250.082 8967.219)" opacity="0.3">
      <circle id="Ellipse_5683-5" data-name="Ellipse 5683" cx="13.899" cy="13.899" r="13.899" transform="translate(0 0)" fill="#f23801" opacity="0.28"/>
      <circle id="Ellipse_5684-5" data-name="Ellipse 5684" cx="6.584" cy="6.584" r="6.584" transform="translate(7.315 7.315)" fill="#f23801" opacity="0.88"/>
    </g>
  </g>
</svg>
